<svg width="435" height="80" viewBox="0 0 435 80" fill="none" xmlns="http://www.w3.org/2000/svg">
<path d="M7.81027 44.4622C7.80992 42.093 8.42517 39.7643 9.59573 37.7044C10.7663 35.6446 12.452 33.9242 14.4876 32.7119V24.1841C12.0548 25.0238 9.79298 26.2944 7.81027 27.9353V10.3236C7.81027 9.30305 7.60926 8.29251 7.21872 7.34967C6.82818 6.40682 6.25576 5.55013 5.53413 4.8285C4.81251 4.10688 3.95582 3.53446 3.01297 3.14392C2.07013 2.75338 1.05959 2.55237 0.0390625 2.55237V44.485C0.0390973 49.5474 1.83007 54.4466 5.095 58.3154C8.35994 62.1843 12.8883 64.7734 17.8787 65.6245C16.0738 62.8163 14.9529 59.6238 14.6061 56.3036C12.5351 55.0983 10.8172 53.37 9.62451 51.2918C8.43181 49.2135 7.80617 46.8584 7.81027 44.4622V44.4622Z" fill="white"/>
<path d="M42.8103 42.2151C42.2673 37.0798 39.8898 32.3127 36.1144 28.7894C32.3391 25.2661 27.4194 23.2231 22.2588 23.0355V30.8113C25.694 31.0051 28.9298 32.4868 31.3209 34.9608C33.7119 37.4349 35.0824 40.7194 35.1589 44.1592C35.2354 47.599 34.0123 50.9412 31.7336 53.5191C29.4549 56.097 26.2882 57.7211 22.865 58.0675C23.7184 60.8276 25.4241 63.2466 27.7374 64.9772C32.5049 63.5284 36.6183 60.4628 39.3694 56.3083C42.1205 52.1537 43.3373 47.1701 42.8103 42.2151V42.2151Z" fill="white"/>
<path d="M55.9325 52.5113C55.8805 52.5229 55.8265 52.5228 55.7744 52.511C55.7224 52.4992 55.6737 52.4759 55.6317 52.443L54.5378 51.5815C54.4961 51.549 54.4622 51.5076 54.4386 51.4602C54.4149 51.4129 54.4021 51.3609 54.4011 51.3081V49.9133C54.4002 49.86 54.4117 49.8071 54.4346 49.7588C54.4575 49.7106 54.4913 49.6683 54.5333 49.6353L55.6135 48.7602C55.6551 48.7264 55.7036 48.7024 55.7557 48.6898C55.8077 48.6771 55.8619 48.6763 55.9143 48.6873L56.7666 48.8741C56.4591 47.638 56.0427 46.4315 55.5223 45.2689L54.9754 45.6517C54.9327 45.6831 54.8832 45.704 54.831 45.7127C54.7787 45.7214 54.7251 45.7177 54.6746 45.7018L53.3391 45.3144C53.2872 45.2989 53.2394 45.2721 53.1992 45.2358C53.159 45.1995 53.1274 45.1548 53.1067 45.1048L52.5779 43.8194C52.5545 43.7711 52.5424 43.7181 52.5424 43.6645C52.5424 43.6108 52.5545 43.5578 52.5779 43.5095L53.2571 42.2925C53.2823 42.246 53.3182 42.2061 53.3617 42.176C53.4053 42.1459 53.4553 42.1265 53.5078 42.1193L53.7265 42.0829C52.9133 40.8727 51.9786 39.7486 50.9371 38.7283L50.6864 39.1294C50.6572 39.1763 50.6179 39.2162 50.5714 39.2462C50.5249 39.2761 50.4723 39.2954 50.4175 39.3026L48.9818 39.4621C48.927 39.4679 48.8716 39.4615 48.8196 39.4433C48.7676 39.4252 48.7203 39.3958 48.6809 39.3573L47.6645 38.3363C47.6246 38.298 47.5942 38.2507 47.576 38.1985C47.5578 38.1462 47.5522 38.0903 47.5597 38.0355L47.7192 36.6043C47.7256 36.5497 47.744 36.4973 47.7732 36.4508C47.8023 36.4043 47.8415 36.3648 47.8879 36.3354L47.9608 36.2898C47.6509 36.0801 47.3364 35.875 47.0128 35.6836L47.2771 36.3445C47.3029 36.3978 47.3163 36.4562 47.3163 36.5154C47.3163 36.5746 47.3029 36.6331 47.2771 36.6863L46.5114 38.0218C46.482 38.0736 46.4414 38.1181 46.3924 38.152C46.3435 38.186 46.2876 38.2084 46.2288 38.2178L44.7065 38.4502C44.6481 38.4591 44.5885 38.4552 44.5318 38.4386C44.4751 38.4221 44.4227 38.3934 44.3783 38.3545L43.2434 37.3062C43.2002 37.2667 43.1666 37.2178 43.1453 37.1633C43.124 37.1087 43.1154 37.0501 43.1203 36.9917L43.2297 35.4511C43.2337 35.3923 43.2509 35.335 43.2801 35.2837C43.3093 35.2324 43.3497 35.1884 43.3983 35.1549L44.5287 34.38C42.9349 33.6835 41.2619 33.1845 39.5469 32.8942C41.3557 35.7005 42.4769 38.894 42.8195 42.2151C45.1023 43.5524 46.9496 45.5216 48.1386 47.8851C48.1363 47.8623 48.1363 47.8394 48.1386 47.8167L48.4485 46.7183C48.4595 46.6765 48.48 46.6379 48.5085 46.6055C48.5369 46.573 48.5726 46.5477 48.6126 46.5314L49.6654 46.0756C49.7048 46.0576 49.7475 46.0482 49.7908 46.0482C49.8341 46.0482 49.8768 46.0576 49.9161 46.0756L50.9189 46.618C50.9563 46.6398 50.9888 46.6694 51.0139 46.7048C51.0391 46.7402 51.0564 46.7805 51.0647 46.8231L51.2653 47.9443C51.2729 47.9871 51.2707 48.0311 51.2589 48.073C51.247 48.1148 51.2258 48.1534 51.1969 48.1859L50.4448 49.0428C50.4163 49.0762 50.3806 49.1025 50.3403 49.1199C50.3 49.1373 50.2562 49.1452 50.2124 49.1431L49.0729 49.0884C49.029 49.0855 48.9862 49.0729 48.9476 49.0517C48.909 49.0304 48.8755 49.0009 48.8496 48.9653L48.289 48.1859C49.2783 50.2809 49.7192 52.5929 49.5701 54.9049C49.421 57.217 48.6869 59.4532 47.4366 61.4038L48.5715 61.1987C48.6172 61.1905 48.6641 61.1924 48.709 61.2042C48.7539 61.216 48.7956 61.2374 48.8314 61.267L49.7429 62.0738C49.7789 62.1047 49.8074 62.1432 49.8263 62.1866C49.8452 62.23 49.8541 62.2772 49.8523 62.3245L49.7976 63.5506C49.7956 63.5978 49.7831 63.6439 49.761 63.6857C49.7389 63.7275 49.7078 63.7638 49.67 63.7921L48.6809 64.5123C48.6433 64.5413 48.5992 64.561 48.5525 64.5697C48.5058 64.5784 48.4576 64.5759 48.412 64.5624L47.227 64.2388C47.1815 64.2267 47.1395 64.2044 47.1039 64.1736C47.0684 64.1428 47.0403 64.1043 47.0219 64.061L46.5615 62.9261C46.5412 62.8834 46.5307 62.8367 46.5307 62.7894C46.5307 62.7421 46.5412 62.6954 46.5615 62.6527L46.639 62.5114C45.5782 63.8499 44.2766 64.9783 42.8013 65.8386L43.3117 66.2671C43.352 66.3001 43.384 66.3419 43.4053 66.3894C43.4267 66.4368 43.4368 66.4885 43.4348 66.5405L43.4029 67.9079C43.401 67.9604 43.3873 68.0119 43.3629 68.0584C43.3384 68.105 43.3038 68.1454 43.2616 68.1768L42.1723 69.0018C42.1306 69.0334 42.0823 69.0552 42.0309 69.0654C41.9796 69.0757 41.9267 69.0742 41.876 69.061L40.5497 68.7238C40.4987 68.712 40.4512 68.6887 40.4109 68.6554C40.3705 68.6222 40.3385 68.5801 40.3172 68.5323L39.7566 67.2835C39.7394 67.2413 39.7286 67.1967 39.7247 67.1513C36.2799 68.1465 32.582 67.7487 29.4276 66.0436C26.2732 64.3386 23.9148 61.4627 22.8605 58.0355C22.2631 56.1012 22.1026 54.0585 22.3907 52.0546C22.6788 50.0508 23.4082 48.136 24.5264 46.4484C25.6445 44.7607 27.1233 43.3424 28.8562 42.2958C30.5891 41.2493 32.5328 40.6005 34.5469 40.3965C33.6928 37.6379 31.9891 35.2196 29.6791 33.4867C26.9641 34.3127 24.4403 35.6699 22.2543 37.4794V19.8951C22.2543 17.84 21.4379 15.8692 19.9848 14.4161C18.5317 12.963 16.5609 12.1466 14.5059 12.1466V53.8103C14.5059 53.8331 14.5059 53.8559 14.5059 53.8833C14.5059 53.9106 14.5059 53.979 14.5059 54.0291C14.5062 54.7797 14.5458 55.5297 14.6244 56.2762C14.9496 59.3285 15.9255 62.2756 17.4862 64.9188C19.0469 67.5621 21.1563 69.8399 23.672 71.5988C26.1877 73.3577 29.0513 74.5568 32.0696 75.1152C35.088 75.6736 38.1911 75.5784 41.1695 74.8359L40.7411 73.8879C40.723 73.8518 40.7136 73.812 40.7136 73.7716C40.7136 73.7313 40.723 73.6915 40.7411 73.6554L41.2242 72.7165C41.2421 72.6799 41.2684 72.6481 41.3008 72.6236C41.3333 72.599 41.3711 72.5825 41.4111 72.5752L42.4457 72.3655C42.4857 72.3568 42.5272 72.3575 42.5668 72.3678C42.6064 72.3781 42.643 72.3976 42.6736 72.4248L43.4849 73.1039C43.5149 73.131 43.5388 73.1641 43.5553 73.201C43.5718 73.2378 43.5804 73.2777 43.5807 73.3181L43.5579 74.0839C44.8522 73.5979 46.0963 72.9873 47.2725 72.2607C47.2222 72.2322 47.1798 72.1915 47.1495 72.1422L46.4157 70.9571C46.3869 70.9122 46.369 70.8613 46.3635 70.8082C46.358 70.7552 46.3649 70.7016 46.3838 70.6518L46.8396 69.3391C46.8575 69.2892 46.8865 69.244 46.9243 69.2069C46.9622 69.1698 47.0081 69.1417 47.0583 69.1249L48.3756 68.6691C48.4258 68.6512 48.4795 68.6452 48.5325 68.6515C48.5855 68.6579 48.6363 68.6764 48.6809 68.7055L49.8432 69.4439C49.8882 69.4722 49.9264 69.5102 49.9548 69.5552C49.9832 69.6001 50.0011 69.6509 50.0073 69.7037L50.0574 70.1595C51.3406 69.0277 52.4878 67.7505 53.4758 66.3537L53.1203 66.3901C53.0977 66.392 53.075 66.3889 53.0537 66.381C53.0325 66.3731 53.0132 66.3607 52.9973 66.3445L52.5916 65.9252C52.5751 65.9097 52.5627 65.8903 52.5556 65.8689C52.5484 65.8474 52.5467 65.8245 52.5506 65.8022L52.619 65.2233C52.6229 65.201 52.6314 65.1798 52.644 65.161C52.6565 65.1422 52.6728 65.1261 52.6919 65.1139L53.1887 64.8131C53.2081 64.8019 53.2301 64.796 53.2525 64.796C53.2749 64.796 53.2969 64.8019 53.3163 64.8131L53.8678 65.0136C53.8888 65.0211 53.9079 65.0332 53.9237 65.049C53.9394 65.0647 53.9515 65.0838 53.959 65.1048L54.0775 65.4603C54.3479 65.0319 54.6032 64.5943 54.8432 64.1476C54.7804 64.1637 54.7146 64.1637 54.6518 64.1476L53.3163 63.7602C53.2644 63.7447 53.2166 63.7179 53.1764 63.6816C53.1362 63.6453 53.1046 63.6006 53.0839 63.5506L52.5779 62.2516C52.5545 62.2032 52.5424 62.1503 52.5424 62.0966C52.5424 62.0429 52.5545 61.9899 52.5779 61.9416L53.2571 60.7247C53.2823 60.6782 53.3182 60.6382 53.3617 60.6082C53.4053 60.5781 53.4553 60.5586 53.5078 60.5515L54.8751 60.3236C54.9275 60.3149 54.9811 60.3177 55.0323 60.3319C55.0835 60.346 55.131 60.3712 55.1714 60.4056L56.1149 61.2579C56.2288 60.9343 56.3382 60.6107 56.4385 60.2826L56.2151 60.3053C56.1925 60.3072 56.1698 60.3041 56.1485 60.2962C56.1273 60.2883 56.108 60.2759 56.0921 60.2598L55.6864 59.845C55.6703 59.8292 55.6581 59.8099 55.651 59.7884C55.6438 59.767 55.6419 59.7442 55.6454 59.7219L55.7138 59.1431C55.7172 59.1206 55.7255 59.0992 55.7381 59.0803C55.7507 59.0614 55.7673 59.0455 55.7867 59.0337L56.2835 58.7283C56.3036 58.7195 56.3254 58.715 56.3473 58.715C56.3693 58.715 56.391 58.7195 56.4111 58.7283L56.8168 58.8742C57.1802 57.2909 57.3636 55.6717 57.3637 54.0473C57.3637 53.4214 57.3364 52.8061 57.2817 52.2014L55.9325 52.5113ZM54.7976 52.7894C54.8317 52.7619 54.8715 52.7424 54.9141 52.7321C54.9566 52.7219 55.0009 52.7212 55.0438 52.7301L56.1832 52.9808C56.2272 52.9904 56.2684 53.0097 56.3039 53.0373C56.3394 53.0649 56.3682 53.1001 56.3883 53.1403L56.8988 54.1886C56.9179 54.2285 56.9277 54.2721 56.9277 54.3163C56.9277 54.3604 56.9179 54.404 56.8988 54.4439L56.3975 55.4968C56.3791 55.537 56.352 55.5726 56.3181 55.601C56.2841 55.6294 56.2443 55.6499 56.2015 55.6608L55.0665 55.9252C55.0234 55.9358 54.9783 55.9364 54.9349 55.9269C54.8914 55.9174 54.8507 55.8981 54.8159 55.8705L53.9043 55.1504C53.8688 55.124 53.84 55.0896 53.8202 55.05C53.8004 55.0104 53.7902 54.9667 53.7903 54.9225V53.7556C53.7906 53.7113 53.8005 53.6675 53.8194 53.6274C53.8383 53.5872 53.8657 53.5517 53.8997 53.5232L54.7976 52.7894ZM53.1112 45.793C53.1489 45.7637 53.1923 45.7429 53.2387 45.7319C53.2851 45.7209 53.3334 45.7199 53.3801 45.7292L54.5925 45.9981C54.6385 46.0086 54.6815 46.0292 54.7186 46.0584C54.7556 46.0876 54.7857 46.1246 54.8068 46.1668L55.3537 47.2834C55.374 47.3262 55.3845 47.3729 55.3845 47.4202C55.3845 47.4675 55.374 47.5142 55.3537 47.5569L54.8204 48.6781C54.8004 48.7207 54.7712 48.7583 54.735 48.7882C54.6987 48.8182 54.6563 48.8397 54.6108 48.8514L53.3984 49.1385C53.3526 49.1483 53.3053 49.1481 53.2597 49.1379C53.214 49.1276 53.1712 49.1076 53.134 49.0792L52.1541 48.309C52.1171 48.2795 52.0872 48.242 52.0667 48.1994C52.0462 48.1568 52.0355 48.1101 52.0355 48.0628V46.8231C52.0348 46.7757 52.0452 46.7288 52.0657 46.686C52.0863 46.6433 52.1166 46.606 52.1541 46.577L53.1112 45.793ZM44.9845 42.3609C44.9289 42.3418 44.8786 42.31 44.8375 42.2681C44.7963 42.2262 44.7655 42.1752 44.7475 42.1193L44.2552 40.6563C44.237 40.6005 44.2312 40.5413 44.2383 40.4831C44.2453 40.4248 44.2651 40.3688 44.2962 40.319L45.1349 39.0245C45.1657 38.9747 45.2077 38.9327 45.2575 38.9018C45.3074 38.871 45.3637 38.8521 45.422 38.8468L46.9581 38.6918C47.0164 38.6857 47.0753 38.6928 47.1305 38.7125C47.1857 38.7322 47.2358 38.7641 47.2771 38.8058L48.3573 39.9088C48.398 39.9515 48.4289 40.0026 48.4478 40.0585C48.4666 40.1144 48.4731 40.1737 48.4667 40.2324L48.2753 41.7638C48.2673 41.8225 48.2464 41.8787 48.2141 41.9284C48.1817 41.978 48.1388 42.0199 48.0884 42.051L46.7712 42.8714C46.7215 42.903 46.6653 42.9227 46.6068 42.929C46.5483 42.9353 46.4891 42.9281 46.4339 42.9079L44.9845 42.3609ZM49.8432 45.1503C49.8411 45.1975 49.8286 45.2437 49.8066 45.2855C49.7845 45.3273 49.7534 45.3636 49.7156 45.3919L48.7265 46.1166C48.688 46.1439 48.6438 46.1622 48.5973 46.1701C48.5507 46.178 48.503 46.1753 48.4576 46.1622L47.2725 45.8386C47.2271 45.8265 47.185 45.8042 47.1495 45.7734C47.114 45.7426 47.0859 45.7041 47.0674 45.6608L46.5843 44.535C46.564 44.4923 46.5535 44.4456 46.5535 44.3983C46.5535 44.351 46.564 44.3043 46.5843 44.2615L47.1632 43.1813C47.1851 43.1389 47.2167 43.1024 47.2556 43.0746C47.2944 43.0469 47.3393 43.0288 47.3865 43.0218L48.5943 42.7985C48.6403 42.7899 48.6877 42.792 48.7327 42.8047C48.7778 42.8173 48.8193 42.8402 48.8541 42.8714L49.7657 43.6736C49.8016 43.7044 49.8301 43.743 49.8491 43.7864C49.868 43.8298 49.8769 43.8769 49.8751 43.9243L49.8432 45.1503ZM49.1048 42.4156C49.0652 42.3796 49.0343 42.335 49.0146 42.2852C48.9948 42.2355 48.9867 42.1818 48.9909 42.1285L49.0866 40.7383C49.0907 40.6848 49.1068 40.6328 49.1336 40.5863C49.1604 40.5398 49.1973 40.4998 49.2416 40.4694L50.3902 39.6809C50.4337 39.6512 50.4833 39.6317 50.5354 39.6238C50.5874 39.6159 50.6406 39.6198 50.691 39.6353L52.0264 40.0409C52.0776 40.0567 52.1246 40.0838 52.1641 40.12C52.2035 40.1563 52.2343 40.2009 52.2543 40.2506L52.7648 41.545C52.785 41.5942 52.7935 41.6474 52.7895 41.7004C52.7856 41.7534 52.7693 41.8048 52.742 41.8504L52.0538 43.0583C52.027 43.1049 51.9902 43.145 51.9461 43.1757C51.9019 43.2065 51.8516 43.227 51.7985 43.236L50.4312 43.4457C50.3785 43.4545 50.3244 43.4512 50.2731 43.4362C50.2219 43.4212 50.1746 43.3949 50.1349 43.3591L49.1048 42.4156ZM51.0237 46.1987C50.9877 46.201 50.9517 46.1958 50.9179 46.1832C50.8841 46.1706 50.8534 46.151 50.8277 46.1257L50.1668 45.4512C50.1423 45.4244 50.1239 45.3925 50.1128 45.3579C50.1018 45.3233 50.0985 45.2867 50.103 45.2506L50.217 44.3163C50.2209 44.2798 50.2333 44.2448 50.253 44.214C50.2728 44.1831 50.2995 44.1573 50.3309 44.1385L51.1376 43.6462C51.1699 43.6318 51.2048 43.6243 51.2402 43.6243C51.2755 43.6243 51.3105 43.6318 51.3428 43.6462L52.2315 43.9699C52.2653 43.9829 52.2958 44.0031 52.3209 44.0291C52.3461 44.0551 52.3654 44.0861 52.3774 44.1203L52.6782 45.0318C52.6893 45.0664 52.693 45.103 52.689 45.1391C52.6851 45.1752 52.6737 45.2101 52.6554 45.2415L52.1221 45.9981C52.1023 46.0282 52.0762 46.0537 52.0454 46.0726C52.0147 46.0915 51.9802 46.1034 51.9444 46.1075L51.0237 46.1987ZM49.5515 51.4083L49.8888 49.9042C49.8999 49.846 49.9247 49.7912 49.9612 49.7445C49.9976 49.6977 50.0447 49.6603 50.0984 49.6353L51.4658 48.9562C51.5183 48.9304 51.576 48.917 51.6345 48.917C51.6929 48.917 51.7506 48.9304 51.8031 48.9562L53.1978 49.6171C53.2511 49.6422 53.298 49.679 53.3351 49.7248C53.3722 49.7706 53.3985 49.8241 53.412 49.8814L53.7675 51.3855C53.7809 51.4429 53.7812 51.5026 53.7686 51.5601C53.756 51.6177 53.7307 51.6717 53.6946 51.7183L52.7375 52.9307C52.7009 52.9765 52.6544 53.0134 52.6015 53.0387C52.5486 53.064 52.4907 53.0769 52.4321 53.0765H50.8915C50.8324 53.076 50.7741 53.0627 50.7206 53.0375C50.6671 53.0123 50.6197 52.9759 50.5816 52.9307L49.6153 51.7319C49.583 51.6862 49.5606 51.6341 49.5496 51.5792C49.5386 51.5242 49.5392 51.4676 49.5515 51.4129V51.4083ZM53.4895 55.9252L52.7466 57.0738C52.7181 57.1172 52.6805 57.154 52.6364 57.1815C52.5924 57.209 52.5429 57.2267 52.4913 57.2333L51.124 57.3701C51.072 57.375 51.0196 57.3681 50.9707 57.35C50.9217 57.3318 50.8775 57.3029 50.8414 57.2652L49.8842 56.2853C49.8477 56.2487 49.82 56.2041 49.8034 56.1551C49.7868 56.1061 49.7817 56.054 49.7885 56.0027L49.9572 54.6353C49.9637 54.5832 49.9818 54.5332 50.0102 54.489C50.0386 54.4449 50.0765 54.4076 50.1212 54.3801L51.2881 53.6645C51.3327 53.6371 51.3828 53.62 51.4348 53.6145C51.4869 53.6089 51.5395 53.6151 51.5889 53.6326L52.8742 54.0884C52.9233 54.1055 52.9678 54.1337 53.0041 54.1709C53.0405 54.2081 53.0678 54.2531 53.0839 54.3026L53.5396 55.6016C53.5603 55.656 53.5665 55.7148 53.5578 55.7723C53.549 55.8298 53.5255 55.884 53.4895 55.9298V55.9252ZM45.4813 71.2762L44.6518 72.0966C44.621 72.1286 44.583 72.1527 44.5409 72.167C44.4989 72.1812 44.4541 72.1852 44.4102 72.1786L43.2525 72.0419C43.208 72.0374 43.1651 72.0228 43.1272 71.999C43.0892 71.9753 43.0573 71.9432 43.0337 71.9052L42.423 70.9116C42.3982 70.8743 42.3828 70.8317 42.3781 70.7873C42.3733 70.7429 42.3793 70.6979 42.3956 70.6563L42.7876 69.5624C42.801 69.5196 42.8246 69.4806 42.8563 69.4488C42.8881 69.4171 42.9271 69.3935 42.9699 69.3801L44.0729 69.0018C44.1151 68.9876 44.16 68.9831 44.2042 68.9886C44.2484 68.9941 44.2907 69.0095 44.3281 69.0337L45.3081 69.6581C45.3461 69.6817 45.3783 69.7137 45.402 69.7516C45.4257 69.7895 45.4403 69.8324 45.4448 69.8769L45.5679 71.0346C45.5736 71.0796 45.5687 71.1252 45.5537 71.1679C45.5386 71.2106 45.5138 71.2493 45.4813 71.2807V71.2762ZM47.7101 66.2625L47.154 67.5387C47.1336 67.588 47.102 67.6317 47.0616 67.6666C47.0212 67.7014 46.9733 67.7263 46.9216 67.7393L45.577 68.1039C45.5256 68.1171 45.4719 68.1186 45.4199 68.1084C45.3678 68.0981 45.3187 68.0763 45.2762 68.0446L44.1549 67.2197C44.1118 67.1878 44.0763 67.1467 44.0511 67.0994C44.0259 67.0521 44.0115 66.9998 44.0091 66.9462L43.9544 65.556C43.9517 65.5026 43.9614 65.4493 43.9828 65.4003C44.0041 65.3513 44.0365 65.3078 44.0775 65.2734L45.1349 64.3619C45.1757 64.3282 45.2233 64.3039 45.2745 64.2905C45.3257 64.2771 45.3791 64.275 45.4312 64.2844L46.7985 64.5442C46.8516 64.553 46.9019 64.5741 46.9454 64.6057C46.9889 64.6374 47.0245 64.6787 47.0492 64.7265L47.701 65.9571C47.7299 66.0067 47.7459 66.0627 47.7475 66.12C47.7491 66.1774 47.7363 66.2342 47.7101 66.2853V66.2625ZM51.5615 67.2151L50.6773 68.0857C50.6434 68.119 50.6025 68.1445 50.5576 68.1602C50.5127 68.176 50.4648 68.1817 50.4175 68.1768L49.1823 68.0264C49.1356 68.0216 49.0906 68.0059 49.051 67.9806C49.0115 67.9552 48.9784 67.921 48.9544 67.8806L48.2981 66.8231C48.2735 66.7833 48.2583 66.7384 48.2535 66.6918C48.2488 66.6452 48.2547 66.5982 48.2707 66.5542L48.6855 65.3828C48.7016 65.3382 48.7276 65.2978 48.7616 65.2646C48.7955 65.2315 48.8365 65.2065 48.8815 65.1914L50.0574 64.7903C50.1023 64.7738 50.1505 64.7682 50.198 64.7737C50.2455 64.7792 50.291 64.7959 50.3309 64.8222L51.3746 65.4877C51.4152 65.5126 51.4494 65.5466 51.4747 65.5869C51.5 65.6272 51.5157 65.6728 51.5205 65.7201L51.6527 66.9553C51.6612 67.0063 51.6573 67.0585 51.6414 67.1077C51.6256 67.1568 51.5982 67.2015 51.5615 67.2379V67.2151ZM52.6782 63.4047C52.6893 63.4393 52.693 63.4758 52.689 63.512C52.6851 63.5481 52.6737 63.583 52.6554 63.6144L52.1221 64.4302C52.1023 64.4604 52.0762 64.4858 52.0454 64.5047C52.0147 64.5236 51.9802 64.5355 51.9444 64.5396L51.0055 64.6308C50.9697 64.635 50.9336 64.631 50.8996 64.6192C50.8656 64.6073 50.8348 64.5879 50.8095 64.5624L50.1486 63.8878C50.1241 63.861 50.1056 63.8292 50.0946 63.7946C50.0836 63.76 50.0802 63.7234 50.0848 63.6873L50.1987 62.7484C50.2033 62.7127 50.216 62.6787 50.2357 62.6486C50.2555 62.6186 50.2818 62.5935 50.3127 62.5752L51.1194 62.0829C51.1513 62.0672 51.1864 62.0591 51.222 62.0591C51.2575 62.0591 51.2926 62.0672 51.3245 62.0829L52.2133 62.4065C52.247 62.4196 52.2775 62.4398 52.3027 62.4658C52.3279 62.4917 52.3471 62.5228 52.3592 62.5569L52.6782 63.4047ZM52.742 60.2643L52.0538 61.4722C52.0275 61.5188 51.9908 61.5587 51.9465 61.5887C51.9022 61.6188 51.8516 61.6382 51.7985 61.6454L50.4312 61.8596C50.3781 61.8684 50.3237 61.8648 50.2723 61.849C50.2208 61.8332 50.1738 61.8056 50.1349 61.7684L49.1139 60.8249C49.0741 60.7901 49.043 60.7463 49.0232 60.6972C49.0034 60.6481 48.9955 60.5951 49 60.5423L49.0957 59.1522C49.0998 59.0986 49.1159 59.0467 49.1427 59.0002C49.1695 58.9536 49.2064 58.9137 49.2507 58.8833L50.3993 58.0948C50.4428 58.0651 50.4924 58.0456 50.5445 58.0377C50.5966 58.0298 50.6497 58.0337 50.7001 58.0492L52.0355 58.4548C52.0867 58.4706 52.1338 58.4976 52.1732 58.5339C52.2126 58.5702 52.2434 58.6148 52.2634 58.6645L52.7739 59.9589C52.7963 60.012 52.8051 60.0698 52.7995 60.1271C52.7939 60.1844 52.7742 60.2394 52.742 60.2871V60.2643ZM55.5998 58.4959L55.0255 59.3846C55.0046 59.4189 54.976 59.4479 54.942 59.4692C54.908 59.4906 54.8695 59.5037 54.8295 59.5077L53.7767 59.6125C53.7363 59.6169 53.6955 59.6118 53.6575 59.5975C53.6195 59.5833 53.5854 59.5603 53.5579 59.5305L52.8149 58.7739C52.7878 58.7448 52.7673 58.7102 52.7547 58.6724C52.7421 58.6347 52.7378 58.5947 52.742 58.5551L52.8742 57.5022C52.879 57.462 52.893 57.4233 52.9152 57.3894C52.9373 57.3554 52.9669 57.3269 53.0018 57.3063L53.9134 56.7547C53.9482 56.7343 53.987 56.7217 54.0271 56.7178C54.0673 56.7138 54.1078 56.7187 54.1459 56.732L55.1395 57.092C55.1776 57.1062 55.2122 57.1286 55.2406 57.1578C55.269 57.187 55.2905 57.2221 55.3036 57.2607L55.6408 58.2634C55.6552 58.3061 55.6589 58.3516 55.6518 58.3961C55.6447 58.4405 55.6268 58.4826 55.5998 58.5186V58.4959ZM57.1267 56.896L56.8077 57.3883C56.7956 57.4071 56.7796 57.423 56.7607 57.4348C56.7418 57.4466 56.7204 57.4541 56.6983 57.4567L56.1149 57.5159C56.093 57.5174 56.071 57.5141 56.0506 57.5062C56.0301 57.4984 56.0116 57.4861 55.9964 57.4703L55.5862 57.051C55.5709 57.0355 55.5593 57.0169 55.5523 56.9964C55.5452 56.9759 55.5427 56.9541 55.5451 56.9325L55.6181 56.3491C55.6206 56.3275 55.6281 56.3069 55.64 56.2887C55.6519 56.2705 55.6677 56.2553 55.6864 56.2443L56.1878 55.9389C56.2076 55.9289 56.2294 55.9237 56.2516 55.9237C56.2738 55.9237 56.2956 55.9289 56.3154 55.9389L56.8624 56.1394C56.8841 56.1456 56.9038 56.1572 56.9198 56.1731C56.9358 56.1891 56.9474 56.2089 56.9535 56.2306L57.1404 56.7821C57.1501 56.8037 57.1548 56.8273 57.154 56.851C57.1532 56.8747 57.147 56.8979 57.1358 56.9188L57.1267 56.896Z" fill="white"/>
<path d="M51.4661 37.8897C51.4954 37.8434 51.5139 37.7911 51.5203 37.7366C51.5266 37.6822 51.5205 37.627 51.5026 37.5752L51.024 36.2078C51.0056 36.1559 50.9761 36.1086 50.9375 36.0692C50.899 36.0298 50.8522 35.9994 50.8007 35.98L49.4333 35.5242C49.3815 35.5062 49.3263 35.5002 49.2719 35.5065C49.2174 35.5128 49.1651 35.5313 49.1188 35.5606L47.9702 36.2808C49.033 37.0033 50.0291 37.8194 50.9465 38.7193L51.4661 37.8897Z" fill="white"/>
<path d="M58.1206 50.4056L57.5099 49.1567C57.4855 49.1086 57.4509 49.0665 57.4083 49.0334C57.3657 49.0003 57.3164 48.977 57.2637 48.9653L56.7578 48.8559C57.0252 49.943 57.2065 51.0494 57.3002 52.165C57.3501 52.1523 57.3966 52.1285 57.4361 52.0953C57.4755 52.0622 57.507 52.0205 57.5281 51.9735L58.1252 50.7155C58.1482 50.667 58.1598 50.6138 58.159 50.56C58.1582 50.5063 58.1451 50.4535 58.1206 50.4056V50.4056Z" fill="white"/>
<path d="M56.1058 44.8314C56.1502 44.8015 56.1869 44.7615 56.213 44.7148C56.2391 44.6681 56.2539 44.6159 56.2562 44.5625L56.3428 43.1951C56.3517 43.1355 56.3455 43.0747 56.3248 43.0182C56.3041 42.9617 56.2695 42.9112 56.2243 42.8715L55.1897 41.9599C55.1501 41.9238 55.1029 41.8973 55.0515 41.8823C55.0002 41.8673 54.9461 41.8642 54.8934 41.8733L53.7402 42.0647C54.4213 43.0757 55.0145 44.1431 55.5133 45.2553L56.1058 44.8314Z" fill="white"/>
<path d="M54.9663 64.0656L56.1058 63.2634C56.1497 63.233 56.186 63.193 56.2121 63.1464C56.2382 63.0998 56.2532 63.0478 56.2562 62.9945L56.3428 61.6271C56.3457 61.5735 56.3366 61.5198 56.3161 61.4701C56.2956 61.4204 56.2642 61.376 56.2243 61.34L56.1331 61.2579C55.7798 62.2485 55.3532 63.2114 54.8569 64.1385C54.8978 64.1216 54.935 64.0969 54.9663 64.0656V64.0656Z" fill="white"/>
<path d="M53.7131 66.3127C53.7355 66.3112 53.7573 66.3042 53.7764 66.2922C53.7954 66.2803 53.8113 66.2639 53.8225 66.2443L54.1415 65.7567C54.1515 65.7369 54.1568 65.715 54.1568 65.6928C54.1568 65.6707 54.1515 65.6488 54.1415 65.629L54.0777 65.433C53.8802 65.7369 53.6797 66.0408 53.4761 66.3446L53.7131 66.3127Z" fill="white"/>
<path d="M56.8125 60.2234C56.8344 60.2217 56.8556 60.215 56.8745 60.204C56.8935 60.1929 56.9097 60.1777 56.9219 60.1596L57.241 59.6673C57.251 59.6475 57.2562 59.6257 57.2562 59.6035C57.2562 59.5813 57.251 59.5595 57.241 59.5397L57.0587 58.9836C57.0408 58.9429 57.0082 58.9104 56.9675 58.8925L56.8217 58.8423C56.7123 59.2981 56.5847 59.7949 56.4434 60.2598L56.8125 60.2234Z" fill="white"/>
<path d="M42.2726 65.3829C42.2327 65.3494 42.1858 65.325 42.1354 65.3117C42.085 65.2983 42.0323 65.2961 41.9809 65.3054L40.6409 65.5789C40.5891 65.588 40.5402 65.6093 40.4982 65.641C40.4562 65.6727 40.4223 65.7139 40.3993 65.7612L39.7749 66.9782C39.748 67.0319 39.7339 67.0912 39.7339 67.1514C40.8095 66.8399 41.8427 66.3975 42.8105 65.8341L42.2726 65.3829Z" fill="white"/>
<path d="M47.3999 72.2744L48.7673 72.4385C48.8204 72.4454 48.8743 72.44 48.9249 72.4226C48.9755 72.4052 49.0214 72.3763 49.059 72.3382L50.0526 71.3582C50.0898 71.321 50.1181 71.2758 50.1355 71.2261C50.1528 71.1764 50.1588 71.1234 50.1529 71.0711L50.0572 70.1595C49.179 70.9285 48.2401 71.6251 47.2495 72.2425C47.2967 72.2641 47.3481 72.275 47.3999 72.2744V72.2744Z" fill="white"/>
<path d="M41.1831 74.836C41.198 74.8738 41.2221 74.9073 41.2531 74.9335C41.2841 74.9598 41.3211 74.9779 41.3609 74.9864L42.3864 75.2507C42.4254 75.2603 42.466 75.2612 42.5054 75.2533C42.5448 75.2455 42.582 75.229 42.6143 75.2051L43.4575 74.567C43.4903 74.5425 43.5171 74.5109 43.536 74.4746C43.555 74.4384 43.5655 74.3983 43.5669 74.3574V74.0657C42.7833 74.3635 41.9827 74.6146 41.1694 74.8177L41.1831 74.836Z" fill="white"/>
<path d="M46.721 34.8906C46.6992 34.8356 46.6654 34.7862 46.622 34.746C46.5786 34.7058 46.5268 34.6758 46.4703 34.6582L44.9981 34.2024C44.9418 34.1841 44.8821 34.1791 44.8236 34.1878C44.7651 34.1965 44.7093 34.2187 44.6608 34.2525L44.5195 34.3482C45.3825 34.728 46.2199 35.1634 47.0264 35.6518L46.721 34.8906Z" fill="white"/>
<path d="M68.3667 41.732L66.6575 41.1349L65.1214 42.0966L64.9209 43.897L66.2017 45.1777L68.002 44.9772L68.9683 43.4412L68.3667 41.732Z" fill="white"/>
<path d="M53.9863 36.691L54.6016 38.5278L56.4248 39.1932L58.0793 38.1814L58.3209 36.2579L56.9672 34.8678L55.0347 35.0638L53.9863 36.691Z" fill="white"/>
<path d="M63.5215 61.1486L64.1322 62.5661L65.6227 62.9718L66.867 62.0648L66.9353 60.5196L65.7685 59.5078L64.2507 59.7858L63.5215 61.1486Z" fill="white"/>
<path d="M59.2736 46.3719L60.3082 47.3245C60.3473 47.3614 60.3944 47.3888 60.4457 47.4046C60.4971 47.4204 60.5514 47.4242 60.6045 47.4157L61.9946 47.2015C62.0477 47.1925 62.098 47.1719 62.1422 47.1412C62.1863 47.1104 62.2231 47.0703 62.2499 47.0237L62.9472 45.8068C62.9742 45.7602 62.9903 45.7081 62.9943 45.6544C62.9982 45.6007 62.9899 45.5468 62.97 45.4968L62.4504 44.1887C62.4304 44.139 62.3996 44.0944 62.3602 44.0581C62.3207 44.0219 62.2737 43.9948 62.2225 43.979L60.8552 43.5688C60.8041 43.5533 60.7502 43.5493 60.6973 43.5572C60.6445 43.5651 60.5941 43.5846 60.5498 43.6144L59.4149 44.412C59.3699 44.4417 59.3325 44.4815 59.3056 44.5282C59.2787 44.5749 59.263 44.6272 59.2599 44.681L59.1596 46.0848C59.1547 46.1382 59.1625 46.1921 59.1823 46.242C59.2021 46.2919 59.2334 46.3364 59.2736 46.3719V46.3719Z" fill="white"/>
<path d="M59.5742 56.3264L60.7912 57.835L62.7283 57.8214L63.927 56.299L63.4849 54.4121L61.7301 53.5825L59.989 54.4348L59.5742 56.3264Z" fill="white"/>
<path opacity="0.4" d="M76.7256 58.9289L77.8742 59.8314L79.3008 59.4941L79.9252 58.1723L79.2826 56.8596L77.8514 56.5406L76.7119 57.4658L76.7256 58.9289Z" fill="white"/>
<path d="M72.6371 45.6563L73.7902 46.5587L75.2168 46.2215L75.8413 44.8951L75.194 43.5824L73.7674 43.2679L72.6279 44.1886L72.6371 45.6563Z" fill="white"/>
<path opacity="0.4" d="M78.3389 33.6098L79.5422 34.8404L81.2514 34.6672L82.1857 33.2178L81.6342 31.5907L80.0207 31.0027L78.5531 31.9006L78.3389 33.6098Z" fill="white"/>
<path d="M68.681 53.8833L69.9116 54.845L71.4294 54.4895L72.0949 53.0765L71.4066 51.6773L69.8843 51.34L68.6719 52.3245L68.681 53.8833Z" fill="white"/>
<path opacity="0.9" d="M57.9336 29.6536L59.3101 30.7338L61.0147 30.3281L61.7622 28.7466L60.9919 27.1741L59.2827 26.8003L57.9199 27.8988L57.9336 29.6536Z" fill="white"/>
<path d="M60.308 40.7384L61.9853 41.2306L63.4211 40.2234L63.5259 38.4777L62.2223 37.3063L60.4949 37.5889L59.6426 39.1203L60.308 40.7384Z" fill="white"/>
<path d="M63.1931 51.8642L64.6243 51.9371L65.5678 50.8614L65.3171 49.4485L64.0591 48.7648L62.7374 49.3254L62.3545 50.7065L63.1931 51.8642Z" fill="white"/>
<path d="M68.1431 48.309L68.9726 49.1568L70.1531 49.0383L70.7958 48.0401L70.4175 46.9143L69.3008 46.5087L68.2889 47.1285L68.1431 48.309Z" fill="white"/>
<path d="M72.2046 64.8906L72.8153 66.3081L74.3058 66.7138L75.5501 65.8068L75.6184 64.2616L74.4516 63.2498L72.9339 63.5278L72.2046 64.8906Z" fill="white"/>
<path opacity="0.5" d="M60.7319 22.2743L62.0218 23.4593L63.7493 23.1904L64.6198 21.6726L63.9772 20.0455L62.2998 19.535L60.8596 20.5286L60.7319 22.2743Z" fill="white"/>
<path opacity="0.8" d="M64.365 34.453L66.0469 34.9453L67.478 33.938L67.5829 32.1878L66.2839 31.0164L64.5564 31.3035L63.7041 32.8304L64.365 34.453Z" fill="white"/>
<path d="M73.5303 50.5469L74.0453 51.0711L74.7746 50.9982L75.1711 50.3829L74.9387 49.6855L74.2504 49.4348L73.6214 49.8177L73.5303 50.5469Z" fill="white"/>
<path opacity="0.7" d="M81.4434 39.1841L81.9584 39.7083L82.6877 39.6354L83.0842 39.0201L82.8518 38.3227L82.159 38.072L81.5345 38.4549L81.4434 39.1841Z" fill="white"/>
<path d="M55.6362 32.5067L56.1513 33.0355L56.8805 32.958L57.2816 32.3427L57.0446 31.6453L56.3564 31.3946L55.732 31.7775L55.6362 32.5067Z" fill="white"/>
<path d="M68.2251 64.4896L68.7401 65.0137L69.4694 64.9408L69.8659 64.3209L69.6335 63.6281L68.9407 63.3774L68.3163 63.7603L68.2251 64.4896Z" fill="white"/>
<path d="M65.9233 38.3363L66.4384 38.8605L67.1676 38.7875L67.5642 38.1722L67.3317 37.4749L66.6435 37.2242L66.0145 37.6071L65.9233 38.3363Z" fill="white"/>
<path d="M48.3711 74.3984L48.8816 74.9226L49.6154 74.8496L50.0119 74.2343L49.7795 73.537L49.0867 73.2863L48.4623 73.6691L48.3711 74.3984Z" fill="white"/>
<path d="M65.6455 56.226L66.1605 56.7502L66.8898 56.6773L67.2863 56.062L67.0539 55.3646L66.3656 55.1139L65.7367 55.4968L65.6455 56.226Z" fill="white"/>
<path d="M71.3887 59.0247L72.3185 59.9773L73.6403 59.8451L74.365 58.7284L73.9411 57.4659L72.6877 57.0146L71.5573 57.7074L71.3887 59.0247Z" fill="white"/>
<path opacity="0.4" d="M78.0249 52.5114L78.9547 53.464L80.2765 53.3318L80.9967 52.2151L80.5728 50.9526L79.3239 50.5014L78.189 51.1942L78.0249 52.5114Z" fill="white"/>
<path opacity="0.6" d="M79.5791 46.536L80.5089 47.4886L81.8307 47.3518L82.5509 46.2351L82.127 44.9772L80.8781 44.5214L79.7432 45.2142L79.5791 46.536Z" fill="white"/>
<path d="M60.5958 70.5835L60.1035 71.9645L60.8738 73.2088L62.3278 73.382L63.3715 72.3519L63.2166 70.898L61.9814 70.1095L60.5958 70.5835Z" fill="white"/>
<path d="M58.7449 62.5251L57.9609 64.0565L58.6674 65.6244L60.3356 66.0483L61.7075 65.0137L61.7485 63.2953L60.4313 62.1878L58.7449 62.5251Z" fill="white"/>
<path opacity="0.4" d="M68.0475 30.4876L69.4923 30.2643L70.2216 28.9926L69.6838 27.6344L68.2845 27.2059L67.0767 28.0309L66.9673 29.494L68.0475 30.4876Z" fill="white"/>
<path opacity="0.6" d="M77.5778 29.257L79.0864 28.3682L79.328 26.6316L78.1247 25.36L76.3836 25.5104L75.4082 26.9643L75.9415 28.6325L77.5778 29.257Z" fill="white"/>
<path opacity="0.4" d="M71.0559 38.3136L72.2455 38.2862L72.9657 37.3473L72.6785 36.1942L71.5983 35.7019L70.5363 36.2352L70.2993 37.402L71.0559 38.3136Z" fill="white"/>
<path opacity="0.5" d="M71.2698 24.2935L72.0036 24.2798L72.4502 23.6964L72.2725 22.9854L71.6025 22.68L70.9507 23.0127L70.8003 23.7283L71.2698 24.2935Z" fill="white"/>
<path opacity="0.6" d="M58.5671 25.205L59.3009 25.1914L59.7476 24.608L59.5699 23.8969L58.9044 23.5916L58.2481 23.9243L58.0977 24.6399L58.5671 25.205Z" fill="white"/>
<path opacity="0.7" d="M75.3401 34.9726L76.0739 34.9589L76.5206 34.3755L76.3428 33.6599L75.6728 33.3591L75.021 33.6873L74.8706 34.4074L75.3401 34.9726Z" fill="white"/>
<path opacity="0.6" d="M72.282 31.4402L73.0158 31.422L73.4625 30.8386L73.2847 30.1276L72.6192 29.8222L71.9629 30.1549L71.8125 30.875L72.282 31.4402Z" fill="white"/>
<path opacity="0.6" d="M75.6548 40L76.3704 41.3856L77.9018 41.6955L79.096 40.6882L79.055 39.1294L77.8107 38.1905L76.2974 38.5734L75.6548 40Z" fill="white"/>
<path d="M63.3577 65.9526L62.7788 67.5798L63.6904 69.052L65.4042 69.2571L66.6348 68.0447L66.4525 66.3264L64.9985 65.4148H64.9757L63.3394 65.9754L63.3577 65.9526Z" fill="white"/>
<path d="M55.231 68.4868L55.2993 70.237L56.7077 71.2762L58.3987 70.8204L59.096 69.2161L58.2802 67.6709L56.5573 67.3473L55.231 68.4868Z" fill="white"/>
<path d="M52.8468 71.6499L52.2451 72.8213L52.783 74.0246L54.0592 74.3528L55.112 73.5551L55.1485 72.2379L54.1367 71.3901L52.8468 71.6499Z" fill="white"/>
<path d="M49.2598 30.3008L50.6864 31.618L52.6007 31.3218L53.5624 29.6354L52.8468 27.835L50.9918 27.2698L49.3965 28.3683L49.2598 30.3008Z" fill="white"/>
<path d="M131.229 56.3446C131.246 57.8251 130.927 59.29 130.295 60.629C129.69 61.9078 128.84 63.0553 127.793 64.0064C126.729 64.9693 125.491 65.7211 124.146 66.2216C122.71 66.7533 121.189 67.0204 119.657 67.0101H100.117V25.6427H120.035C121.391 25.6179 122.732 25.9312 123.937 26.5542C125.078 27.1561 126.088 27.9788 126.908 28.9745C127.733 29.981 128.374 31.1241 128.805 32.3519C129.243 33.5779 129.469 34.8694 129.475 36.1714C129.494 38.1937 128.947 40.1812 127.898 41.9098C126.872 43.6168 125.348 44.9689 123.531 45.784C125.796 46.4149 127.779 47.7991 129.151 49.7083C130.543 51.6377 131.272 53.966 131.229 56.3446V56.3446ZM104.197 29.1978V44.4622H118.413C119.392 44.4689 120.359 44.2489 121.238 43.8195C122.09 43.4088 122.852 42.8342 123.481 42.1286C124.109 41.419 124.602 40.6002 124.935 39.7129C125.288 38.7922 125.468 37.8139 125.464 36.8277C125.468 35.8161 125.3 34.8111 124.967 33.856C124.66 32.9682 124.185 32.1479 123.568 31.4403C122.971 30.7649 122.25 30.2108 121.444 29.8086C120.609 29.396 119.69 29.1868 118.759 29.1978H104.197ZM127.15 55.6336C127.152 54.6288 126.974 53.6317 126.626 52.6892C125.962 50.8445 124.619 49.3232 122.87 48.4367C121.995 47.9902 121.026 47.7604 120.044 47.7667H104.197V63.4413H119.634C120.651 63.4487 121.657 63.2292 122.578 62.7986C123.477 62.3836 124.288 61.8003 124.967 61.0803C125.652 60.3534 126.194 59.5047 126.567 58.578C126.951 57.6439 127.149 56.6437 127.15 55.6336Z" fill="white"/>
<path d="M138.221 76.3309C138.531 76.3674 138.832 76.3947 139.133 76.4175C139.433 76.4403 139.707 76.4448 139.976 76.4448C140.545 76.4702 141.113 76.3707 141.639 76.1531C142.153 75.8501 142.567 75.4053 142.834 74.8724C143.34 73.9554 143.778 73.0016 144.142 72.0191C144.631 70.7763 145.321 69.1051 146.211 67.0054L132.993 36.6499H137.072L148.294 63.3363L158.722 36.6544H162.51L146.781 75.8067C146.338 76.9546 145.605 77.9677 144.652 78.7466C143.665 79.5822 142.316 80 140.605 80C140.219 80 139.85 79.9909 139.497 79.9726C139.146 79.9726 138.722 79.9043 138.217 79.8268L138.221 76.3309Z" fill="white"/>
<path d="M181.275 65.5515C181.042 65.6654 180.7 65.825 180.254 66.0073C179.807 66.1896 179.296 66.3947 178.713 66.5907C178.063 66.8037 177.401 66.9787 176.73 67.1148C175.964 67.2727 175.184 67.3506 174.401 67.3473C173.573 67.3521 172.748 67.2354 171.954 67.0009C171.208 66.7841 170.514 66.4164 169.916 65.9207C169.322 65.423 168.844 64.8006 168.517 64.0975C168.152 63.2938 167.973 62.4183 167.993 61.536V39.7994H163.791V36.6544H167.988V26.3992H171.949V36.6544H178.941V39.7994H171.954V60.4239C171.952 60.8999 172.059 61.3701 172.266 61.7989C172.473 62.2276 172.774 62.6038 173.148 62.8988C173.866 63.4228 174.734 63.6995 175.623 63.6873C176.641 63.7097 177.653 63.5203 178.595 63.1312C179.157 62.9099 179.702 62.6479 180.226 62.3473L181.275 65.5515Z" fill="white"/>
<path d="M197.241 67.5889C195.141 67.6161 193.059 67.1901 191.138 66.34C189.323 65.5236 187.688 64.3538 186.329 62.8988C184.959 61.4354 183.876 59.7267 183.139 57.8623C182.372 55.9134 181.985 53.8355 181.999 51.7411C181.988 49.6765 182.375 47.629 183.139 45.711C183.865 43.877 184.932 42.1973 186.284 40.7611C187.663 39.3301 189.313 38.1881 191.138 37.402C193.951 36.1356 197.089 35.7812 200.114 36.3885C203.138 36.9958 205.896 38.5344 208.002 40.7885C210.72 43.7647 212.218 47.6557 212.195 51.6864V52.598C212.204 52.8139 212.184 53.0299 212.136 53.2406H186.156C186.257 54.8013 186.641 56.3304 187.291 57.7529C187.9 59.0854 188.739 60.2997 189.771 61.34C190.764 62.3398 191.94 63.1398 193.235 63.6964C194.55 64.2642 195.968 64.5529 197.401 64.5442C198.386 64.5422 199.366 64.4042 200.313 64.134C201.25 63.8793 202.15 63.5072 202.993 63.0264C203.809 62.5609 204.554 61.9824 205.208 61.3081C205.848 60.6615 206.361 59.9009 206.721 59.0656L210.158 60C209.69 61.1309 209.019 62.1672 208.18 63.0583C207.304 63.987 206.304 64.7906 205.208 65.4467C204.045 66.1415 202.79 66.6708 201.48 67.0191C200.098 67.3957 198.673 67.5873 197.241 67.5889V67.5889ZM208.426 50.2279C208.33 48.6841 207.945 47.172 207.291 45.7702C206.684 44.4813 205.856 43.3089 204.844 42.3062C203.854 41.3346 202.687 40.5611 201.407 40.0273C200.086 39.481 198.67 39.2036 197.241 39.2114C195.802 39.2046 194.375 39.4818 193.043 40.0273C191.752 40.5563 190.576 41.3302 189.579 42.3062C188.568 43.309 187.757 44.4955 187.191 45.8021C186.577 47.2035 186.211 48.7011 186.111 50.2279H208.426Z" fill="white"/>
<path d="M250.258 56.3446C250.309 57.8912 249.977 59.4264 249.291 60.8133C248.604 62.2002 247.585 63.3958 246.325 64.2935C245.038 65.2173 243.599 65.9069 242.072 66.3309C240.395 66.8045 238.66 67.0393 236.918 67.0283H216.931V25.6426H239.073C240.429 25.6193 241.77 25.9325 242.975 26.5542C244.116 27.156 245.126 27.9787 245.947 28.9744C246.775 29.991 247.415 31.147 247.838 32.3883C248.278 33.6138 248.505 34.9057 248.508 36.2078C248.516 38.2015 247.994 40.1615 246.995 41.8869C245.991 43.6481 244.436 45.0303 242.569 45.8204C244.801 46.4286 246.774 47.747 248.189 49.5761C249.566 51.3689 250.255 53.625 250.258 56.3446ZM224.971 32.5159V42.9444H235.691C236.334 42.9565 236.972 42.8393 237.568 42.5997C238.163 42.3601 238.705 42.003 239.16 41.5496C239.648 41.0402 240.027 40.436 240.272 39.7742C240.518 39.1125 240.625 38.4075 240.587 37.7028C240.661 36.3172 240.19 34.9575 239.274 33.9152C238.867 33.4642 238.368 33.1059 237.81 32.8645C237.253 32.6231 236.65 32.5042 236.042 32.5159H224.971ZM242.159 54.8496C242.16 54.1232 242.032 53.4025 241.781 52.721C241.547 52.0749 241.201 51.4749 240.76 50.948C240.343 50.4491 239.828 50.0412 239.247 49.7493C238.648 49.458 237.989 49.3098 237.323 49.3163H224.971V60.1914H236.918C237.627 60.1969 238.329 60.0573 238.982 59.7812C239.609 59.5219 240.176 59.1355 240.646 58.6463C241.623 57.6169 242.165 56.2504 242.159 54.8313V54.8496Z" fill="white"/>
<path d="M263.772 67.5889C260.627 67.5889 258.239 66.5801 256.607 64.5625C254.976 62.5449 254.16 59.5534 254.16 55.588V36.4904H261.967V53.9107C261.967 58.6144 263.657 60.9648 267.036 60.9617C268.604 60.946 270.133 60.4706 271.434 59.5944C272.958 58.558 274.159 57.1146 274.903 55.4285V36.4904H282.71V58.0492C282.66 58.6659 282.821 59.2814 283.166 59.7949C283.35 59.9869 283.571 60.138 283.817 60.2385C284.063 60.3391 284.327 60.3867 284.593 60.3783V67.0283C283.949 67.1617 283.297 67.2576 282.642 67.3155C282.113 67.3565 281.639 67.3747 281.211 67.3747C280.002 67.4304 278.807 67.093 277.806 66.413C277.378 66.1043 277.019 65.7091 276.752 65.2529C276.486 64.7967 276.319 64.2898 276.261 63.7648L276.083 61.3173C274.805 63.3431 272.99 64.9758 270.842 66.0347C268.637 67.0934 266.217 67.6254 263.772 67.5889Z" fill="white"/>
<path d="M289.133 32.2242V24.4758H296.927V32.2242H289.133ZM289.133 67.0283V36.4904H296.927V67.0283H289.133Z" fill="white"/>
<path d="M302.574 24.4758H310.382V57.2197C310.323 58.1638 310.614 59.0965 311.198 59.8405C311.495 60.1554 311.859 60.4006 312.262 60.5582C312.666 60.7158 313.099 60.782 313.531 60.752C314.053 60.7438 314.571 60.6656 315.072 60.5196C315.622 60.3692 316.158 60.174 316.676 59.9362L317.725 65.8614C316.556 66.4032 315.323 66.7937 314.056 67.0237C312.809 67.281 311.541 67.4184 310.268 67.4339C307.822 67.4339 305.927 66.7836 304.584 65.4831C303.241 64.1826 302.571 62.3275 302.574 59.9179V24.4758Z" fill="white"/>
<path d="M332.405 67.5889C330.44 67.6103 328.492 67.211 326.694 66.4178C324.895 65.6246 323.287 64.4559 321.977 62.99C320.671 61.5118 319.654 59.8019 318.978 57.9489C318.246 55.9617 317.88 53.8586 317.898 51.7411C317.88 49.6405 318.225 47.5526 318.919 45.5697C319.555 43.7436 320.512 42.0457 321.744 40.556C322.926 39.137 324.396 37.9857 326.056 37.1786C327.761 36.3546 329.633 35.9351 331.526 35.9525C333.667 35.9239 335.775 36.4886 337.615 37.5843C339.364 38.617 340.819 40.0812 341.84 41.8368V24.4758H349.648V58.0355C349.593 58.6458 349.735 59.2576 350.054 59.7812C350.231 59.9731 350.448 60.1246 350.69 60.2252C350.931 60.3259 351.191 60.3734 351.453 60.3646V67.0283C350.36 67.267 349.248 67.4028 348.13 67.4339C346.899 67.4847 345.687 67.115 344.693 66.3856C344.264 66.061 343.907 65.6499 343.647 65.1788C343.386 64.7078 343.227 64.1872 343.18 63.6509L343.003 61.7274C341.946 63.6078 340.361 65.137 338.445 66.1258C336.58 67.0957 334.507 67.5979 332.405 67.5889V67.5889ZM334.443 60.948C335.218 60.9419 335.987 60.8142 336.722 60.5697C337.49 60.3217 338.217 59.9591 338.878 59.4941C339.537 59.0273 340.134 58.4791 340.655 57.8623C341.169 57.2566 341.574 56.5655 341.849 55.8204V48.5278C341.539 47.6778 341.096 46.8824 340.537 46.1713C339.986 45.4626 339.339 44.835 338.613 44.3072C337.911 43.7919 337.145 43.3705 336.334 43.0537C335.583 42.7557 334.782 42.6011 333.973 42.5979C332.851 42.5869 331.743 42.8465 330.742 43.3546C329.757 43.8528 328.893 44.5589 328.208 45.4238C327.493 46.3207 326.941 47.3357 326.576 48.4229C326.186 49.547 325.989 50.729 325.992 51.9188C325.98 53.1338 326.198 54.3401 326.635 55.474C327.038 56.5237 327.629 57.4908 328.381 58.3272C329.123 59.1444 330.026 59.7992 331.033 60.2507C332.107 60.7253 333.269 60.9632 334.443 60.948V60.948Z" fill="white"/>
<path d="M370.158 67.5889C367.883 67.6227 365.625 67.198 363.517 66.34C361.616 65.5545 359.892 64.3934 358.449 62.9261C357.047 61.4871 355.947 59.7825 355.213 57.9125C354.455 56.0039 354.07 53.9678 354.078 51.9143C354.065 49.814 354.44 47.7293 355.186 45.7657C355.898 43.8789 356.983 42.1551 358.376 40.6973C359.821 39.2074 361.555 38.0286 363.472 37.2333C365.605 36.3505 367.896 35.9131 370.204 35.948C372.492 35.9093 374.762 36.347 376.872 37.2333C378.756 38.0328 380.461 39.2013 381.886 40.67C383.264 42.1102 384.334 43.8161 385.031 45.6836C385.748 47.5767 386.114 49.5846 386.111 51.6089C386.111 52.1148 386.111 52.598 386.079 53.0674C386.07 53.4588 386.021 53.8482 385.933 54.2297H362.351C362.445 55.3377 362.742 56.419 363.226 57.4202C364.11 59.226 365.653 60.6239 367.537 61.3263C368.469 61.6746 369.455 61.8521 370.45 61.8505C371.99 61.8546 373.504 61.4622 374.848 60.711C376.114 60.0751 377.115 59.0131 377.674 57.7119L384.374 59.5761C383.182 61.9775 381.308 63.9736 378.987 65.3145C376.513 66.8307 373.571 67.5889 370.158 67.5889ZM378.084 49.1795C377.98 47.0856 377.07 45.113 375.546 43.6736C374.071 42.3192 372.14 41.5699 370.137 41.575C368.134 41.58 366.207 42.3391 364.739 43.701C364.023 44.3858 363.441 45.1971 363.021 46.0939C362.565 47.063 362.299 48.1104 362.237 49.1795H378.084Z" fill="white"/>
<path d="M407.738 43.2361C405.549 43.2355 403.384 43.7017 401.389 44.6035C399.618 45.384 398.19 46.7798 397.369 48.5324V67.0283H389.562V36.4904H396.727V43.0173C397.248 41.9995 397.894 41.0503 398.65 40.1914C399.363 39.378 400.164 38.6459 401.038 38.0082C401.835 37.4179 402.707 36.9381 403.632 36.5816C404.439 36.2622 405.298 36.0938 406.166 36.0848H407.128C407.333 36.0835 407.537 36.1034 407.738 36.144V43.2361Z" fill="white"/>
<path d="M422.301 67.5889C419.747 67.5912 417.21 67.1787 414.789 66.3674C412.481 65.6293 410.341 64.4411 408.495 62.8715L411.407 57.9763C413.099 59.2003 414.936 60.2092 416.877 60.98C418.557 61.6412 420.345 61.9858 422.15 61.9964C423.424 62.0605 424.69 61.7567 425.796 61.1213C426.222 60.8612 426.571 60.4921 426.807 60.0523C427.042 59.6124 427.156 59.1176 427.136 58.619C427.15 58.1079 427.006 57.605 426.725 57.1781C426.444 56.7511 426.039 56.4204 425.564 56.2306C423.904 55.5111 422.19 54.9258 420.436 54.4804C418.458 53.9365 416.769 53.4123 415.368 52.9079C414.164 52.5033 413.026 51.9243 411.991 51.1896C411.193 50.6194 410.552 49.8576 410.126 48.9745C409.716 48.0293 409.516 47.0056 409.543 45.9754C409.522 44.5263 409.834 43.0919 410.455 41.7821C411.049 40.542 411.915 39.4516 412.989 38.5916C414.126 37.6905 415.421 37.0089 416.808 36.5816C418.344 36.1043 419.945 35.869 421.553 35.8842C423.739 35.8669 425.913 36.2008 427.993 36.8733C430.027 37.5499 431.901 38.6357 433.499 40.0638L430.354 44.7812C428.977 43.718 427.457 42.8555 425.837 42.2197C424.452 41.6899 422.982 41.4135 421.498 41.4038C420.337 41.364 419.187 41.6464 418.176 42.2197C417.734 42.492 417.375 42.8804 417.139 43.3425C416.903 43.8047 416.798 44.3228 416.836 44.8405C416.816 45.308 416.927 45.7717 417.155 46.1805C417.413 46.5711 417.764 46.8921 418.176 47.1148C418.756 47.4365 419.366 47.6991 419.999 47.8988C420.755 48.154 421.694 48.4138 422.825 48.6873C424.921 49.2312 426.717 49.7751 428.212 50.319C429.509 50.7654 430.737 51.393 431.858 52.1832C432.744 52.8048 433.464 53.6343 433.955 54.5989C434.427 55.6302 434.656 56.756 434.625 57.8897C434.625 60.8858 433.519 63.2467 431.307 64.9727C429.095 66.6986 426.093 67.5707 422.301 67.5889Z" fill="white"/>
</svg>
